<mxfile host="app.diagrams.net" modified="2024-02-01T12:52:16.334Z" agent="Mozilla/5.0 (Windows NT 10.0; Win64; x64) AppleWebKit/537.36 (KHTML, like Gecko) Chrome/120.0.0.0 Safari/537.36" etag="BszmMXhkDLS-RBUTLEQN" version="23.1.0" type="github">
  <diagram name="第 1 页" id="jxD4HPuxF9yWb5nmfORr">
    <mxGraphModel dx="1674" dy="784" grid="0" gridSize="10" guides="1" tooltips="1" connect="1" arrows="1" fold="1" page="1" pageScale="1" pageWidth="827" pageHeight="1169" math="0" shadow="0">
      <root>
        <mxCell id="0" />
        <mxCell id="1" parent="0" />
        <mxCell id="m9QAufIoSBWmaGEufKs7-1" value="" style="ellipse;whiteSpace=wrap;html=1;aspect=fixed;" vertex="1" parent="1">
          <mxGeometry x="101" y="398" width="224" height="224" as="geometry" />
        </mxCell>
        <mxCell id="m9QAufIoSBWmaGEufKs7-2" value="AddToPlaylist" style="text;html=1;align=center;verticalAlign=middle;resizable=0;points=[];autosize=1;strokeColor=none;fillColor=none;" vertex="1" parent="1">
          <mxGeometry x="165" y="413" width="90" height="26" as="geometry" />
        </mxCell>
        <mxCell id="m9QAufIoSBWmaGEufKs7-3" value="" style="ellipse;whiteSpace=wrap;html=1;aspect=fixed;" vertex="1" parent="1">
          <mxGeometry x="1153" y="292" width="224" height="224" as="geometry" />
        </mxCell>
        <mxCell id="m9QAufIoSBWmaGEufKs7-4" value="BookRestaurant" style="text;html=1;align=center;verticalAlign=middle;resizable=0;points=[];autosize=1;strokeColor=none;fillColor=none;" vertex="1" parent="1">
          <mxGeometry x="1217" y="299" width="104" height="26" as="geometry" />
        </mxCell>
        <mxCell id="m9QAufIoSBWmaGEufKs7-5" value="" style="ellipse;whiteSpace=wrap;html=1;aspect=fixed;" vertex="1" parent="1">
          <mxGeometry x="622" y="354" width="224" height="224" as="geometry" />
        </mxCell>
        <mxCell id="m9QAufIoSBWmaGEufKs7-6" value="GetWeather" style="text;html=1;align=center;verticalAlign=middle;resizable=0;points=[];autosize=1;strokeColor=none;fillColor=none;" vertex="1" parent="1">
          <mxGeometry x="693" y="354" width="82" height="26" as="geometry" />
        </mxCell>
        <mxCell id="m9QAufIoSBWmaGEufKs7-7" value="" style="ellipse;whiteSpace=wrap;html=1;aspect=fixed;" vertex="1" parent="1">
          <mxGeometry x="94" y="656" width="224" height="224" as="geometry" />
        </mxCell>
        <mxCell id="m9QAufIoSBWmaGEufKs7-8" value="PlayMusic" style="text;html=1;align=center;verticalAlign=middle;resizable=0;points=[];autosize=1;strokeColor=none;fillColor=none;" vertex="1" parent="1">
          <mxGeometry x="173.5" y="851" width="73" height="26" as="geometry" />
        </mxCell>
        <mxCell id="m9QAufIoSBWmaGEufKs7-9" value="" style="ellipse;whiteSpace=wrap;html=1;aspect=fixed;" vertex="1" parent="1">
          <mxGeometry x="353" y="641" width="224" height="224" as="geometry" />
        </mxCell>
        <mxCell id="m9QAufIoSBWmaGEufKs7-10" value="RateBook" style="text;html=1;align=center;verticalAlign=middle;resizable=0;points=[];autosize=1;strokeColor=none;fillColor=none;" vertex="1" parent="1">
          <mxGeometry x="433.5" y="833.5" width="71" height="26" as="geometry" />
        </mxCell>
        <mxCell id="m9QAufIoSBWmaGEufKs7-11" value="" style="ellipse;whiteSpace=wrap;html=1;aspect=fixed;" vertex="1" parent="1">
          <mxGeometry x="882" y="635.5" width="224" height="224" as="geometry" />
        </mxCell>
        <mxCell id="m9QAufIoSBWmaGEufKs7-12" value="SearchScreeningEvent" style="text;html=1;align=center;verticalAlign=middle;resizable=0;points=[];autosize=1;strokeColor=none;fillColor=none;" vertex="1" parent="1">
          <mxGeometry x="923.5" y="821.5" width="141" height="26" as="geometry" />
        </mxCell>
        <mxCell id="m9QAufIoSBWmaGEufKs7-13" value="" style="ellipse;whiteSpace=wrap;html=1;aspect=fixed;" vertex="1" parent="1">
          <mxGeometry x="626" y="635.5" width="224" height="224" as="geometry" />
        </mxCell>
        <mxCell id="m9QAufIoSBWmaGEufKs7-14" value="SearchCreativeWork" style="text;html=1;align=center;verticalAlign=middle;resizable=0;points=[];autosize=1;strokeColor=none;fillColor=none;" vertex="1" parent="1">
          <mxGeometry x="681.5" y="737.5" width="128" height="26" as="geometry" />
        </mxCell>
        <mxCell id="m9QAufIoSBWmaGEufKs7-16" value="artist" style="ellipse;whiteSpace=wrap;html=1;aspect=fixed;fillColor=#ffe6cc;strokeColor=#d79b00;" vertex="1" parent="1">
          <mxGeometry x="232" y="552" width="38" height="38" as="geometry" />
        </mxCell>
        <mxCell id="m9QAufIoSBWmaGEufKs7-17" value="entity_name" style="ellipse;whiteSpace=wrap;html=1;aspect=fixed;" vertex="1" parent="1">
          <mxGeometry x="146" y="443" width="38" height="38" as="geometry" />
        </mxCell>
        <mxCell id="m9QAufIoSBWmaGEufKs7-18" value="music_item" style="ellipse;whiteSpace=wrap;html=1;aspect=fixed;fillColor=#f8cecc;strokeColor=#b85450;" vertex="1" parent="1">
          <mxGeometry x="262" y="509" width="38" height="38" as="geometry" />
        </mxCell>
        <mxCell id="m9QAufIoSBWmaGEufKs7-19" value="playlist" style="ellipse;whiteSpace=wrap;html=1;aspect=fixed;fillColor=#dae8fc;strokeColor=#6c8ebf;" vertex="1" parent="1">
          <mxGeometry x="244" y="453" width="38" height="38" as="geometry" />
        </mxCell>
        <mxCell id="m9QAufIoSBWmaGEufKs7-22" value="playlist_owner" style="ellipse;whiteSpace=wrap;html=1;aspect=fixed;" vertex="1" parent="1">
          <mxGeometry x="116" y="500.5" width="43" height="43" as="geometry" />
        </mxCell>
        <mxCell id="m9QAufIoSBWmaGEufKs7-23" value="sort" style="ellipse;whiteSpace=wrap;html=1;aspect=fixed;fillColor=#0050ef;fontColor=#ffffff;strokeColor=#001DBC;" vertex="1" parent="1">
          <mxGeometry x="1200" y="455" width="38" height="38" as="geometry" />
        </mxCell>
        <mxCell id="m9QAufIoSBWmaGEufKs7-25" value="state" style="ellipse;whiteSpace=wrap;html=1;aspect=fixed;fillColor=#e1d5e7;strokeColor=#9673a6;" vertex="1" parent="1">
          <mxGeometry x="1293" y="407" width="38" height="38" as="geometry" />
        </mxCell>
        <mxCell id="m9QAufIoSBWmaGEufKs7-26" value="city" style="ellipse;whiteSpace=wrap;html=1;aspect=fixed;fillColor=#f0a30a;fontColor=#000000;strokeColor=#BD7000;" vertex="1" parent="1">
          <mxGeometry x="1331" y="404" width="38" height="38" as="geometry" />
        </mxCell>
        <mxCell id="m9QAufIoSBWmaGEufKs7-27" value="&lt;font color=&quot;#121111&quot;&gt;timeRange&lt;/font&gt;" style="ellipse;whiteSpace=wrap;html=1;aspect=fixed;fillColor=#1ba1e2;fontColor=#ffffff;strokeColor=#006EAF;" vertex="1" parent="1">
          <mxGeometry x="1331" y="364" width="38" height="38" as="geometry" />
        </mxCell>
        <mxCell id="m9QAufIoSBWmaGEufKs7-28" value="country" style="ellipse;whiteSpace=wrap;html=1;aspect=fixed;fillColor=#d5e8d4;strokeColor=#82b366;" vertex="1" parent="1">
          <mxGeometry x="1318" y="326" width="38" height="38" as="geometry" />
        </mxCell>
        <mxCell id="m9QAufIoSBWmaGEufKs7-29" value="party_size_numbercity" style="ellipse;whiteSpace=wrap;html=1;aspect=fixed;" vertex="1" parent="1">
          <mxGeometry x="1234" y="423" width="38" height="38" as="geometry" />
        </mxCell>
        <mxCell id="m9QAufIoSBWmaGEufKs7-30" value="&lt;font color=&quot;#030303&quot;&gt;spatial_relation&lt;/font&gt;" style="ellipse;whiteSpace=wrap;html=1;aspect=fixed;fillColor=#d80073;fontColor=#ffffff;strokeColor=#A50040;" vertex="1" parent="1">
          <mxGeometry x="1298" y="455" width="38" height="38" as="geometry" />
        </mxCell>
        <mxCell id="m9QAufIoSBWmaGEufKs7-31" value="state" style="ellipse;whiteSpace=wrap;html=1;aspect=fixed;fillColor=#e1d5e7;strokeColor=#9673a6;" vertex="1" parent="1">
          <mxGeometry x="648" y="402" width="38" height="38" as="geometry" />
        </mxCell>
        <mxCell id="m9QAufIoSBWmaGEufKs7-32" value="city" style="ellipse;whiteSpace=wrap;html=1;aspect=fixed;fillColor=#f0a30a;fontColor=#000000;strokeColor=#BD7000;" vertex="1" parent="1">
          <mxGeometry x="655" y="503" width="38" height="38" as="geometry" />
        </mxCell>
        <mxCell id="m9QAufIoSBWmaGEufKs7-33" value="spacurrent location" style="ellipse;whiteSpace=wrap;html=1;aspect=fixed;" vertex="1" parent="1">
          <mxGeometry x="802" y="443" width="38" height="38" as="geometry" />
        </mxCell>
        <mxCell id="m9QAufIoSBWmaGEufKs7-34" value="country" style="ellipse;whiteSpace=wrap;html=1;aspect=fixed;fillColor=#d5e8d4;strokeColor=#82b366;" vertex="1" parent="1">
          <mxGeometry x="693" y="478" width="38" height="38" as="geometry" />
        </mxCell>
        <mxCell id="m9QAufIoSBWmaGEufKs7-35" value="&lt;font color=&quot;#121111&quot;&gt;timeRange&lt;/font&gt;" style="ellipse;whiteSpace=wrap;html=1;aspect=fixed;fillColor=#1ba1e2;fontColor=#ffffff;strokeColor=#006EAF;" vertex="1" parent="1">
          <mxGeometry x="645" y="451" width="38" height="38" as="geometry" />
        </mxCell>
        <mxCell id="m9QAufIoSBWmaGEufKs7-36" value="condition temperature" style="ellipse;whiteSpace=wrap;html=1;aspect=fixed;" vertex="1" parent="1">
          <mxGeometry x="747" y="423" width="38" height="38" as="geometry" />
        </mxCell>
        <mxCell id="m9QAufIoSBWmaGEufKs7-37" value="&lt;font color=&quot;#121212&quot;&gt;spatial_relation&lt;/font&gt;" style="ellipse;whiteSpace=wrap;html=1;aspect=fixed;fillColor=#d80073;fontColor=#ffffff;strokeColor=#A50040;" vertex="1" parent="1">
          <mxGeometry x="915" y="678.5" width="38" height="38" as="geometry" />
        </mxCell>
        <mxCell id="m9QAufIoSBWmaGEufKs7-38" value="movie type" style="ellipse;whiteSpace=wrap;html=1;aspect=fixed;" vertex="1" parent="1">
          <mxGeometry x="955" y="788.5" width="38" height="38" as="geometry" />
        </mxCell>
        <mxCell id="m9QAufIoSBWmaGEufKs7-39" value="movie name" style="ellipse;whiteSpace=wrap;html=1;aspect=fixed;" vertex="1" parent="1">
          <mxGeometry x="1005" y="783.5" width="38" height="38" as="geometry" />
        </mxCell>
        <mxCell id="m9QAufIoSBWmaGEufKs7-40" value="location name" style="ellipse;whiteSpace=wrap;html=1;aspect=fixed;" vertex="1" parent="1">
          <mxGeometry x="1045" y="766.5" width="38" height="38" as="geometry" />
        </mxCell>
        <mxCell id="m9QAufIoSBWmaGEufKs7-41" value="object location type" style="ellipse;whiteSpace=wrap;html=1;aspect=fixed;" vertex="1" parent="1">
          <mxGeometry x="911" y="781" width="38" height="38" as="geometry" />
        </mxCell>
        <mxCell id="m9QAufIoSBWmaGEufKs7-42" value="&lt;font color=&quot;#121212&quot;&gt;timeRange&lt;/font&gt;" style="ellipse;whiteSpace=wrap;html=1;aspect=fixed;fillColor=#1ba1e2;fontColor=#ffffff;strokeColor=#006EAF;" vertex="1" parent="1">
          <mxGeometry x="965" y="645.5" width="38" height="38" as="geometry" />
        </mxCell>
        <mxCell id="m9QAufIoSBWmaGEufKs7-43" value="object type" style="ellipse;whiteSpace=wrap;html=1;aspect=fixed;fillColor=#a0522d;fontColor=#ffffff;strokeColor=#6D1F00;" vertex="1" parent="1">
          <mxGeometry x="531" y="736" width="38" height="38" as="geometry" />
        </mxCell>
        <mxCell id="m9QAufIoSBWmaGEufKs7-44" value="object select" style="ellipse;whiteSpace=wrap;html=1;aspect=fixed;" vertex="1" parent="1">
          <mxGeometry x="400" y="798" width="38" height="38" as="geometry" />
        </mxCell>
        <mxCell id="m9QAufIoSBWmaGEufKs7-45" value="rating unit" style="ellipse;whiteSpace=wrap;html=1;aspect=fixed;" vertex="1" parent="1">
          <mxGeometry x="501" y="798" width="38" height="38" as="geometry" />
        </mxCell>
        <mxCell id="m9QAufIoSBWmaGEufKs7-46" value="object name" style="ellipse;whiteSpace=wrap;html=1;aspect=fixed;fillColor=#76608a;fontColor=#ffffff;strokeColor=#432D57;" vertex="1" parent="1">
          <mxGeometry x="498" y="666" width="38" height="38" as="geometry" />
        </mxCell>
        <mxCell id="m9QAufIoSBWmaGEufKs7-47" value="object part of series type" style="ellipse;whiteSpace=wrap;html=1;aspect=fixed;" vertex="1" parent="1">
          <mxGeometry x="414" y="743" width="38" height="38" as="geometry" />
        </mxCell>
        <mxCell id="m9QAufIoSBWmaGEufKs7-48" value="best rating" style="ellipse;whiteSpace=wrap;html=1;aspect=fixed;" vertex="1" parent="1">
          <mxGeometry x="450" y="795.5" width="38" height="38" as="geometry" />
        </mxCell>
        <mxCell id="m9QAufIoSBWmaGEufKs7-49" value="album" style="ellipse;whiteSpace=wrap;html=1;aspect=fixed;" vertex="1" parent="1">
          <mxGeometry x="159" y="774" width="38" height="38" as="geometry" />
        </mxCell>
        <mxCell id="m9QAufIoSBWmaGEufKs7-50" value="track" style="ellipse;whiteSpace=wrap;html=1;aspect=fixed;" vertex="1" parent="1">
          <mxGeometry x="146" y="827" width="38" height="38" as="geometry" />
        </mxCell>
        <mxCell id="m9QAufIoSBWmaGEufKs7-51" value="year" style="ellipse;whiteSpace=wrap;html=1;aspect=fixed;" vertex="1" parent="1">
          <mxGeometry x="118.5" y="731" width="38" height="38" as="geometry" />
        </mxCell>
        <mxCell id="m9QAufIoSBWmaGEufKs7-52" value="sort" style="ellipse;whiteSpace=wrap;html=1;aspect=fixed;fillColor=#0050ef;fontColor=#ffffff;strokeColor=#001DBC;" vertex="1" parent="1">
          <mxGeometry x="275" y="731" width="38" height="38" as="geometry" />
        </mxCell>
        <mxCell id="m9QAufIoSBWmaGEufKs7-53" value="service" style="ellipse;whiteSpace=wrap;html=1;aspect=fixed;" vertex="1" parent="1">
          <mxGeometry x="111" y="781" width="38" height="38" as="geometry" />
        </mxCell>
        <mxCell id="m9QAufIoSBWmaGEufKs7-54" value="genre" style="ellipse;whiteSpace=wrap;html=1;aspect=fixed;" vertex="1" parent="1">
          <mxGeometry x="198" y="798" width="38" height="38" as="geometry" />
        </mxCell>
        <mxCell id="m9QAufIoSBWmaGEufKs7-61" value="Source domain" style="text;html=1;align=center;verticalAlign=middle;resizable=0;points=[];autosize=1;strokeColor=none;fillColor=none;" vertex="1" parent="1">
          <mxGeometry x="470" y="310" width="99" height="26" as="geometry" />
        </mxCell>
        <mxCell id="m9QAufIoSBWmaGEufKs7-62" value="target domain" style="text;html=1;align=center;verticalAlign=middle;resizable=0;points=[];autosize=1;strokeColor=none;fillColor=none;" vertex="1" parent="1">
          <mxGeometry x="1017" y="444" width="91" height="26" as="geometry" />
        </mxCell>
        <mxCell id="m9QAufIoSBWmaGEufKs7-63" value="artist" style="ellipse;whiteSpace=wrap;html=1;aspect=fixed;fillColor=#ffe6cc;strokeColor=#d79b00;" vertex="1" parent="1">
          <mxGeometry x="206" y="666" width="38" height="38" as="geometry" />
        </mxCell>
        <mxCell id="m9QAufIoSBWmaGEufKs7-64" value="playlist" style="ellipse;whiteSpace=wrap;html=1;aspect=fixed;fillColor=#dae8fc;strokeColor=#6c8ebf;" vertex="1" parent="1">
          <mxGeometry x="246.5" y="684.5" width="38" height="38" as="geometry" />
        </mxCell>
        <mxCell id="m9QAufIoSBWmaGEufKs7-65" value="music_item" style="ellipse;whiteSpace=wrap;html=1;aspect=fixed;fillColor=#f8cecc;strokeColor=#b85450;" vertex="1" parent="1">
          <mxGeometry x="157" y="660" width="38" height="38" as="geometry" />
        </mxCell>
        <mxCell id="m9QAufIoSBWmaGEufKs7-67" value="restaurant type" style="ellipse;whiteSpace=wrap;html=1;aspect=fixed;" vertex="1" parent="1">
          <mxGeometry x="1165" y="360" width="38" height="38" as="geometry" />
        </mxCell>
        <mxCell id="m9QAufIoSBWmaGEufKs7-68" value="poi" style="ellipse;whiteSpace=wrap;html=1;aspect=fixed;" vertex="1" parent="1">
          <mxGeometry x="1200" y="385" width="38" height="38" as="geometry" />
        </mxCell>
        <mxCell id="m9QAufIoSBWmaGEufKs7-69" value="restaurant name" style="ellipse;whiteSpace=wrap;html=1;aspect=fixed;" vertex="1" parent="1">
          <mxGeometry x="1246" y="383" width="38" height="38" as="geometry" />
        </mxCell>
        <mxCell id="m9QAufIoSBWmaGEufKs7-70" value="party size description" style="ellipse;whiteSpace=wrap;html=1;aspect=fixed;" vertex="1" parent="1">
          <mxGeometry x="1227" y="337" width="38" height="38" as="geometry" />
        </mxCell>
        <mxCell id="m9QAufIoSBWmaGEufKs7-71" value="facility" style="ellipse;whiteSpace=wrap;html=1;aspect=fixed;" vertex="1" parent="1">
          <mxGeometry x="1272" y="338" width="38" height="38" as="geometry" />
        </mxCell>
        <mxCell id="m9QAufIoSBWmaGEufKs7-72" value="cuisine" style="ellipse;whiteSpace=wrap;html=1;aspect=fixed;" vertex="1" parent="1">
          <mxGeometry x="1162" y="407" width="38" height="38" as="geometry" />
        </mxCell>
        <mxCell id="m9QAufIoSBWmaGEufKs7-73" value="served dish" style="ellipse;whiteSpace=wrap;html=1;aspect=fixed;" vertex="1" parent="1">
          <mxGeometry x="1183" y="323" width="38" height="38" as="geometry" />
        </mxCell>
        <mxCell id="m9QAufIoSBWmaGEufKs7-74" value="&lt;font color=&quot;#030303&quot;&gt;spatial_relation&lt;/font&gt;" style="ellipse;whiteSpace=wrap;html=1;aspect=fixed;fillColor=#d80073;fontColor=#ffffff;strokeColor=#A50040;" vertex="1" parent="1">
          <mxGeometry x="697" y="531" width="38" height="38" as="geometry" />
        </mxCell>
        <mxCell id="m9QAufIoSBWmaGEufKs7-75" value="geographic poi" style="ellipse;whiteSpace=wrap;html=1;aspect=fixed;" vertex="1" parent="1">
          <mxGeometry x="785" y="398" width="38" height="38" as="geometry" />
        </mxCell>
        <mxCell id="m9QAufIoSBWmaGEufKs7-76" value="condition description" style="ellipse;whiteSpace=wrap;html=1;aspect=fixed;" vertex="1" parent="1">
          <mxGeometry x="767" y="469" width="38" height="38" as="geometry" />
        </mxCell>
        <mxCell id="m9QAufIoSBWmaGEufKs7-78" value="object type" style="ellipse;whiteSpace=wrap;html=1;aspect=fixed;fillColor=#a0522d;fontColor=#ffffff;strokeColor=#6D1F00;" vertex="1" parent="1">
          <mxGeometry x="647" y="756.5" width="38" height="38" as="geometry" />
        </mxCell>
        <mxCell id="m9QAufIoSBWmaGEufKs7-79" value="object name" style="ellipse;whiteSpace=wrap;html=1;aspect=fixed;fillColor=#76608a;fontColor=#ffffff;strokeColor=#432D57;" vertex="1" parent="1">
          <mxGeometry x="651" y="702.5" width="38" height="38" as="geometry" />
        </mxCell>
        <mxCell id="m9QAufIoSBWmaGEufKs7-80" value="rating value" style="ellipse;whiteSpace=wrap;html=1;aspect=fixed;" vertex="1" parent="1">
          <mxGeometry x="476" y="760" width="38" height="38" as="geometry" />
        </mxCell>
        <mxCell id="m9QAufIoSBWmaGEufKs7-83" value="object type" style="ellipse;whiteSpace=wrap;html=1;aspect=fixed;fillColor=#a0522d;fontColor=#ffffff;strokeColor=#6D1F00;" vertex="1" parent="1">
          <mxGeometry x="894" y="721.5" width="38" height="38" as="geometry" />
        </mxCell>
      </root>
    </mxGraphModel>
  </diagram>
</mxfile>
